<svg width="123" height="40" viewBox="0 0 123 40" fill="none" xmlns="http://www.w3.org/2000/svg">
<g clip-path="url(#clip0_1278_106)">
<path d="M12.3265 20.1148L3.38569 15.2558C2.98799 15.0397 2.51836 15.0487 2.12919 15.28C1.74003 15.5113 1.50781 15.9196 1.50781 16.3724V27.6442C1.50806 27.8687 1.56764 28.0891 1.68052 28.2832C1.7934 28.4772 1.95557 28.6379 2.15058 28.7491L11.0916 33.832C11.2887 33.9441 11.5042 34 11.7198 34C11.9395 34 12.1591 33.9419 12.3588 33.8256C12.7544 33.5955 12.9906 33.1848 12.9906 32.7271V21.2315C12.9906 20.7653 12.7362 20.3374 12.3265 20.1148ZM24.8693 12.3238C24.8695 12.0911 24.8055 11.8629 24.6845 11.6642C24.5635 11.4654 24.3901 11.3039 24.1833 11.1972L14.4336 6.14263C14.2517 6.04832 14.0497 5.99939 13.8448 6.00001C13.6398 6.00062 13.4381 6.05078 13.2567 6.14618L3.65046 11.2008C3.44558 11.3082 3.274 11.4697 3.15431 11.6677C3.03462 11.8657 2.97137 12.0927 2.97142 12.324C2.97082 12.5553 3.03351 12.7824 3.15271 12.9806C3.27191 13.1789 3.44308 13.3407 3.64767 13.4487L13.254 18.5348C13.436 18.6312 13.6388 18.6819 13.8447 18.6825C14.0507 18.6831 14.2537 18.6336 14.4363 18.5383L24.1862 13.4523C24.3927 13.3451 24.5657 13.183 24.6862 12.984C24.8067 12.7849 24.8701 12.5565 24.8693 12.3238ZM25.8703 15.28C25.4813 15.0487 25.0115 15.0395 24.6139 15.2557L15.6729 20.1148C15.4719 20.2239 15.3042 20.3852 15.1873 20.5818C15.0704 20.7783 15.0088 21.0028 15.0089 21.2314V32.7271C15.0089 33.1848 15.2451 33.5954 15.6406 33.8256C15.8404 33.9418 16.0599 33.9999 16.2797 33.9999C16.4952 33.9999 16.7109 33.9439 16.9079 33.832L25.8489 28.749C26.044 28.6379 26.2061 28.4771 26.319 28.2831C26.4319 28.0891 26.4914 27.8687 26.4917 27.6442V16.3724C26.4917 15.9196 26.2594 15.5113 25.8703 15.28Z" fill="#B81414"/>
</g>
<path d="M50.0849 30H45.2369C44.8049 29.056 44.5889 28.064 44.5889 27.024V23.616C44.5889 23.36 44.4929 23.128 44.3009 22.92C44.1249 22.712 43.8609 22.608 43.5089 22.608H42.3329V30H37.1729V10.8H44.4929C45.7889 10.8 46.9169 11.176 47.8769 11.928C48.8369 12.664 49.3169 13.616 49.3169 14.784V18.24C49.3169 18.736 49.1409 19.216 48.7889 19.68C48.4529 20.128 47.9649 20.472 47.3249 20.712C47.9809 20.952 48.4929 21.304 48.8609 21.768C49.2289 22.232 49.4129 22.712 49.4129 23.208V26.784C49.4129 27.76 49.6369 28.832 50.0849 30ZM44.4689 18.192V15.456C44.4689 14.944 44.1729 14.688 43.5809 14.688H42.3329V18.96H43.5809C44.1729 18.96 44.4689 18.704 44.4689 18.192ZM55.7067 30H50.5467V10.8H55.7067V30ZM69.6248 15.072V25.728C69.6248 27.056 69.0168 28.184 67.8008 29.112C66.5848 30.024 65.0728 30.48 63.2648 30.48C61.4568 30.48 59.9448 30.024 58.7288 29.112C57.5128 28.184 56.9048 27.056 56.9048 25.728V15.072C56.9048 13.744 57.5128 12.624 58.7288 11.712C59.9448 10.784 61.4568 10.32 63.2648 10.32C65.0728 10.32 66.5848 10.784 67.8008 11.712C69.0168 12.624 69.6248 13.744 69.6248 15.072ZM64.3448 25.416V15.384C64.3448 15.144 64.2408 14.952 64.0328 14.808C63.8248 14.648 63.5688 14.568 63.2648 14.568C62.9608 14.568 62.7048 14.648 62.4968 14.808C62.2888 14.952 62.1848 15.144 62.1848 15.384V25.416C62.1848 25.656 62.2888 25.856 62.4968 26.016C62.7048 26.16 62.9608 26.232 63.2648 26.232C63.5688 26.232 63.8248 26.16 64.0328 26.016C64.2408 25.856 64.3448 25.656 64.3448 25.416ZM82.7971 25.32C82.7971 26.728 82.2371 27.944 81.1171 28.968C80.0131 29.976 78.5251 30.48 76.6531 30.48C74.6691 30.48 73.1171 30.064 71.9971 29.232C70.8931 28.4 70.3411 27.232 70.3411 25.728V23.544H74.8531V25.2C74.8531 25.584 74.9891 25.896 75.2611 26.136C75.5491 26.36 75.9331 26.472 76.4131 26.472C77.3731 26.472 77.8531 26.056 77.8531 25.224C77.8531 25.016 77.8291 24.824 77.7811 24.648C77.7331 24.472 77.6851 24.32 77.6371 24.192C77.5891 24.048 77.4851 23.896 77.3251 23.736C77.1651 23.56 77.0291 23.424 76.9171 23.328C76.8211 23.232 76.6291 23.088 76.3411 22.896C76.0691 22.704 75.8531 22.56 75.6931 22.464C75.5491 22.352 75.2771 22.176 74.8771 21.936C74.4771 21.68 74.1651 21.48 73.9411 21.336C71.6371 19.88 70.4851 17.928 70.4851 15.48C70.4851 14.088 71.0371 12.88 72.1411 11.856C73.2611 10.832 74.8131 10.32 76.7971 10.32C78.4611 10.32 79.8291 10.784 80.9011 11.712C81.9891 12.624 82.5331 13.744 82.5331 15.072V17.016H78.0211V15.432C78.0211 15.096 77.9011 14.832 77.6611 14.64C77.4371 14.432 77.1491 14.328 76.7971 14.328C76.4291 14.328 76.1091 14.432 75.8371 14.64C75.5651 14.832 75.4291 15.104 75.4291 15.456C75.4291 16.368 75.6211 17.024 76.0051 17.424C76.4051 17.808 77.3491 18.392 78.8371 19.176C80.0851 19.848 81.0531 20.736 81.7411 21.84C82.4451 22.944 82.7971 24.104 82.7971 25.32ZM97.8233 30H87.6713V10.8H92.8313V25.848H97.8233V30ZM108.593 30H98.4413V10.8H103.601V25.848H108.593V30ZM122.051 22.776V25.968C122.051 27.04 121.435 28.064 120.203 29.04C118.987 30 117.459 30.48 115.619 30.48C113.779 30.48 112.227 30 110.963 29.04C109.699 28.064 109.067 27.04 109.067 25.968V14.832C109.067 13.76 109.699 12.744 110.963 11.784C112.227 10.808 113.779 10.32 115.619 10.32C117.459 10.32 118.987 10.808 120.203 11.784C121.435 12.744 122.051 13.76 122.051 14.832V18.024H116.795V15.384C116.795 15.144 116.683 14.952 116.459 14.808C116.235 14.648 115.955 14.568 115.619 14.568C115.283 14.568 115.003 14.648 114.779 14.808C114.571 14.952 114.467 15.144 114.467 15.384V25.416C114.467 25.656 114.571 25.856 114.779 26.016C115.003 26.16 115.283 26.232 115.619 26.232C115.955 26.232 116.235 26.16 116.459 26.016C116.683 25.856 116.795 25.656 116.795 25.416V22.776H122.051Z" fill="white"/>
<defs>
<clipPath id="clip0_1278_106">
<rect width="28" height="28" fill="white" transform="translate(0 6)"/>
</clipPath>
</defs>
</svg>
